<ttFont>
<head>
    <!-- Most of this table will be recalculated by the compiler -->
    <tableVersion value="1.0"/>
    <fontRevision value="2.009"/>
    <checkSumAdjustment value="0x759e3d53"/>
    <magicNumber value="0x5f0f3cf5"/>
    <flags value="00000000 00000011"/>
    <unitsPerEm value="1000"/>
    <created value="Mon Oct  4 15:48:16 2021"/>
    <modified value="Mon Jul 18 16:14:35 2022"/>
    <xMin value="-693"/>
    <yMin value="-470"/>
    <xMax value="2797"/>
    <yMax value="1048"/>
    <macStyle value="00000000 00000000"/>
    <lowestRecPPEM value="6"/>
    <fontDirectionHint value="2"/>
    <indexToLocFormat value="0"/>
    <glyphDataFormat value="0"/>
  </head>
          <CharString index="0">
            150 632 -107 callgsubr
            -162 -872 -103 callgsubr
          </CharString>
          <CharString index="1">
            -96 callgsubr
            endchar
          </CharString>
        <CharString name=".notdef">
          2 endchar
        </CharString>
        <CharString name="i">
          -278 -106 callsubr
        </CharString>
        <CharString name="j">
          -298 -107 callsubr
        </CharString>
        <CharString name="k">
          -13 -99 callgsubr
          endchar
        </CharString>
        <CharString name="l">
          -288 -101 callgsubr
          endchar
        </CharString>
      <CharString index="0">
        rmoveto
        24 20 15 41 42 -20 14 -24 -25 -19 -14 -42 -41 19 -15 25 hvcurveto
        return
      </CharString>
      <CharString index="1">
        vlineto
        -55 -23 -22 -59 vhcurveto
        return
      </CharString>
      <CharString index="2">
        hlineto
        -102 callgsubr
        return
      </CharString>
      <CharString index="3">
        -179 -10 3 vlineto
        return
      </CharString>
      <CharString index="4">
        rmoveto
        16 hlineto
        116 82 53 179 hvcurveto
        544 -104 callgsubr
        59 23 -22 -56 hvcurveto
        -457 vlineto
        -178 -41 -43 -72 vhcurveto
        -7 hlineto
        endchar
      </CharString>
      <CharString index="5">
        -59 -23 23 59 hvcurveto
        return
      </CharString>
      <CharString index="6">
        13 hmoveto
        -98 callgsubr
        return
      </CharString>
      <CharString index="7">
        -189 -10 13 vlineto
        59 23 -22 -56 hvcurveto
        return
      </CharString>
      <CharString index="8">
        18 hmoveto
        -91 callgsubr
        return
      </CharString>
      <CharString index="9">
        -93 callgsubr
        -95 callgsubr
        return
      </CharString>
      <CharString index="10">
        -94 callgsubr
        rlineto
        -58 37 37 -18 79 hhcurveto
        44 10 -3 hlineto
        -26 -20 6 94 -61 hvcurveto
        -154 237 -92 callgsubr
        return
      </CharString>
      <CharString index="11">
        160 632 -107 callgsubr
        -137 -632 rmoveto
        284 10 -13 -105 callgsubr
        444 -104 callgsubr
        59 23 -22 -56 hvcurveto
        -361 -106 callgsubr
        -13 hlineto
        return
      </CharString>
      <CharString index="12">
        -102 callgsubr
        668 -100 callgsubr
        -585 -106 callgsubr
        -13 hlineto
        return
      </CharString>
      <CharString index="13">
        269 10 -3 -105 callgsubr
        120 vlineto
        59 66 128 -202 return
      </CharString>
      <CharString index="14">
        284 10 -13 hlineto
        return
      </CharString>
      <CharString index="15">
        78 88 rlineto
        86 77 22 5 51 hhcurveto
        10 -221 -10 vlineto
        61 29 -8 -23 -17 -17 -25 -32 -36 hvcurveto
        -170 -190 rlineto
        2 40 0 39 40 vvcurveto
        return
      </CharString>
      <CharString index="16">
        -97 callgsubr
        414 -104 callgsubr
        59 23 -22 -56 hvcurveto
        -585 -106 callgsubr
        -8 hlineto
        return
      </CharString>
</ttFont>
